<svg width="411" height="305" viewBox="0 0 411 305" fill="none" xmlns="http://www.w3.org/2000/svg">
<rect x="161" y="50" width="30" height="255" fill="#72757E"/>
<path d="M211.004 177.5C211.004 156.634 204.816 136.237 193.224 118.887C181.631 101.538 165.154 88.0158 145.877 80.0307C126.599 72.0457 105.387 69.9564 84.9215 74.0272C64.4565 78.0979 45.6582 88.1458 30.9038 102.9C16.1494 117.655 6.10145 136.453 2.03071 156.918C-2.04003 177.383 0.0492201 198.596 8.03427 217.873C16.0193 237.151 29.5415 253.628 46.8909 265.22C64.2403 276.813 84.6376 283 105.504 283V249V223.788C96.3487 223.788 87.3994 221.073 79.7874 215.987C72.1754 210.901 66.2425 203.672 62.7391 195.214C59.2357 186.756 58.319 177.449 60.105 168.47C61.8911 159.491 66.2996 151.243 72.773 144.769C79.2465 138.296 87.4943 133.888 96.4732 132.101C105.452 130.315 114.759 131.232 123.217 134.736C131.675 138.239 138.904 144.172 143.991 151.784C149.077 159.396 151.791 168.345 151.791 177.5H185.5H211.004Z" fill="#16161A"/>
<path d="M188.235 122.221C198.054 136.916 203.761 153.93 204.823 171.5H185.5H157.446C156.497 163.282 153.607 155.376 148.979 148.45C143.234 139.852 135.068 133.15 125.513 129.192C115.959 125.235 105.446 124.199 95.3027 126.217C85.1598 128.234 75.843 133.214 68.5304 140.527C61.2178 147.839 56.2379 157.156 54.2203 167.299C52.2028 177.442 53.2383 187.955 57.1958 197.51C61.1534 207.064 67.8552 215.23 76.4539 220.976C83.3798 225.604 91.2857 228.493 99.5036 229.443V249V276.819C81.9333 275.758 64.9195 270.05 50.2243 260.231C33.8616 249.298 21.1085 233.758 13.5775 215.577C6.04662 197.396 4.07619 177.39 7.91542 158.089C11.7547 138.787 21.2311 121.058 35.1464 107.143C49.0618 93.2276 66.791 83.7511 86.0921 79.9119C105.393 76.0726 125.399 78.0431 143.581 85.574C161.762 93.1049 177.302 105.858 188.235 122.221Z" stroke="#7F5AF2" stroke-opacity="0.4" stroke-width="12" stroke-linecap="round" stroke-linejoin="round"/>
<mask id="path-4-inside-1_0_1" fill="white">
<path d="M191 275H331V305H191V275Z"/>
</mask>
<path d="M191 275H331V305H191V275Z" fill="#72757E"/>
<path d="M206 305V275H176V305H206Z" fill="#010101" mask="url(#path-4-inside-1_0_1)"/>
<path d="M219.508 156.835C222.479 175.298 221 194.203 215.194 211.979C209.388 229.755 199.424 245.889 186.128 259.039C172.833 272.19 156.591 281.977 138.752 287.587C120.914 293.198 101.993 294.469 83.5644 291.296L95.6148 221.302C102.904 222.557 110.388 222.054 117.444 219.834C124.499 217.615 130.924 213.744 136.182 208.543C141.441 203.341 145.383 196.96 147.679 189.929C149.975 182.898 150.56 175.42 149.385 168.117L219.508 156.835Z" fill="#94A1B2"/>
<rect x="241" width="30" height="255" fill="#7F5AF2" fill-opacity="0.4"/>
<mask id="path-8-inside-2_0_1" fill="white">
<path d="M271 225H411V255H271V225Z"/>
</mask>
<path d="M271 225H411V255H271V225Z" fill="#7F5AF2" fill-opacity="0.4"/>
<path d="M286 255V225H256V255H286Z" fill="#010101" mask="url(#path-8-inside-2_0_1)"/>
</svg>
